<svg width="81" height="81" viewBox="0 0 81 81" fill="none" xmlns="http://www.w3.org/2000/svg">
<g clip-path="url(#clip0_6_25)">
<path d="M40.5 6.75C41.7656 6.75 43.0144 6.8175 44.2463 6.95588C44.6868 7.00463 45.1134 7.13968 45.5018 7.35331C45.8902 7.56695 46.2326 7.85498 46.5097 8.20097C46.7867 8.54696 46.9929 8.94413 47.1165 9.36981C47.24 9.79548 47.2785 10.2413 47.2298 10.6819C47.181 11.1224 47.0459 11.5491 46.8323 11.9374C46.6187 12.3258 46.3306 12.6683 45.9847 12.9453C45.6387 13.2223 45.2415 13.4285 44.8158 13.5521C44.3901 13.6756 43.9443 13.7141 43.5037 13.6654C37.9419 13.0432 32.3241 14.1647 27.4275 16.8747C22.5309 19.5848 18.5974 23.7495 16.1712 28.7928C13.745 33.8361 12.9458 39.5087 13.8844 45.0259C14.8229 50.5432 17.4528 55.6325 21.4101 59.5899C25.3675 63.5472 30.4568 66.1771 35.9741 67.1156C41.4913 68.0542 47.1639 67.2551 52.2072 64.8288C57.2505 62.4026 61.4152 58.4691 64.1253 53.5725C66.8353 48.6759 67.9568 43.0581 67.3346 37.4962C67.2859 37.0557 67.3244 36.6099 67.4479 36.1842C67.5715 35.7585 67.7777 35.3613 68.0547 35.0153C68.6142 34.3166 69.4284 33.8687 70.3181 33.7702C71.2079 33.6718 72.1003 33.9308 72.799 34.4903C73.145 34.7674 73.4331 35.1098 73.6467 35.4982C73.8603 35.8866 73.9954 36.3132 74.0441 36.7538C74.1791 37.9856 74.25 39.2344 74.25 40.5C74.25 59.1401 59.1401 74.25 40.5 74.25C21.8599 74.25 6.75 59.1401 6.75 40.5C6.75 21.8599 21.8599 6.75 40.5 6.75ZM40.392 26.5849C40.6144 27.4513 40.4838 28.3706 40.0288 29.1408C39.5738 29.911 38.8316 30.469 37.9654 30.6922C35.5856 31.3157 33.5139 32.7836 32.1369 34.8223C30.7599 36.8609 30.1717 39.3309 30.482 41.7714C30.7923 44.2118 31.98 46.456 33.8234 48.0851C35.6667 49.7143 38.0399 50.617 40.5 50.625C42.7445 50.624 44.9252 49.8778 46.6997 48.5034C48.4742 47.129 49.7421 45.2042 50.3044 43.0312C50.5282 42.1643 51.0871 41.4218 51.8584 40.9671C52.6296 40.5123 53.5499 40.3825 54.4168 40.6063C55.2837 40.8301 56.0262 41.3891 56.481 42.1603C56.9358 42.9315 57.0655 43.8518 56.8417 44.7188C55.8064 48.6875 53.3616 52.1436 49.964 54.4414C46.5665 56.7391 42.4486 57.7213 38.3797 57.2046C34.3108 56.6878 30.5692 54.7074 27.8539 51.6332C25.1386 48.5591 23.6354 44.6016 23.625 40.5C23.6256 36.7587 24.8689 33.1236 27.1598 30.1657C29.4506 27.2078 32.6591 25.0947 36.2812 24.1583C36.7105 24.0476 37.1573 24.0226 37.5963 24.0847C38.0352 24.1468 38.4576 24.2947 38.8393 24.5201C39.221 24.7454 39.5546 25.0437 39.821 25.398C40.0875 25.7523 40.2815 26.1556 40.392 26.5849ZM62.451 7.17863C63.067 7.43404 63.5936 7.86624 63.9642 8.42066C64.3348 8.97508 64.5329 9.62687 64.5334 10.2937V16.47H70.7063C71.3737 16.4701 72.026 16.6682 72.5809 17.039C73.1358 17.4099 73.5683 17.9369 73.8237 18.5535C74.079 19.1702 74.1459 19.8486 74.0157 20.5032C73.8856 21.1578 73.5642 21.7591 73.0924 22.2311L61.155 34.155C60.5222 34.788 59.6639 35.1437 58.7689 35.1439H50.625L44.4555 41.3167C43.8222 41.95 42.9633 42.3058 42.0677 42.3058C41.1721 42.3058 40.3132 41.95 39.6799 41.3167C39.0466 40.6835 38.6908 39.8245 38.6908 38.9289C38.6908 38.0333 39.0466 37.1744 39.6799 36.5411L45.8528 30.375V22.2277C45.8529 21.3327 46.2086 20.4744 46.8416 19.8416L58.7722 7.90762C59.2442 7.43535 59.8457 7.11368 60.5005 6.98332C61.1553 6.85295 61.8341 6.91975 62.451 7.17525V7.17863ZM57.7834 18.441L52.6028 23.625V28.3972H57.375L62.559 23.2166H61.1584C60.2633 23.2166 59.4048 22.861 58.7719 22.2281C58.139 21.5952 57.7834 20.7367 57.7834 19.8416V18.441Z" fill="#5E8FFF"/>
</g>
<defs>
<clipPath id="clip0_6_25">
<rect width="81" height="81" fill="white"/>
</clipPath>
</defs>
</svg>
