<svg width="185" height="50" viewBox="0 0 185 50" fill="none" xmlns="http://www.w3.org/2000/svg">
<path d="M57.9815 44V17.8182H68.7969C70.7571 17.8182 72.4489 18.2017 73.8722 18.9688C75.304 19.7273 76.4077 20.7884 77.1832 22.152C77.9588 23.5071 78.3466 25.0838 78.3466 26.8821C78.3466 28.6889 77.9503 30.2699 77.1577 31.625C76.3736 32.9716 75.2528 34.0156 73.7955 34.7571C72.3381 35.4986 70.608 35.8693 68.6051 35.8693H61.9318V30.8835H67.429C68.3835 30.8835 69.1804 30.7173 69.8196 30.3849C70.4673 30.0526 70.9574 29.5881 71.2898 28.9915C71.6222 28.3864 71.7884 27.6832 71.7884 26.8821C71.7884 26.0724 71.6222 25.3736 71.2898 24.7855C70.9574 24.1889 70.4673 23.7287 69.8196 23.4048C69.1719 23.081 68.375 22.919 67.429 22.919H64.3097V44H57.9815ZM83.9652 44H77.1641L85.9979 17.8182H94.4226L103.256 44H96.4553L90.3061 24.4148H90.1016L83.9652 44ZM83.0575 33.696H97.2734V38.5028H83.0575V33.696ZM106.075 44V17.8182H112.403V28.8892H112.749L121.403 17.8182H128.857L119.575 29.5028L129.023 44H121.455L114.935 33.7088L112.403 36.9048V44H106.075ZM137.016 44H130.215L139.049 17.8182H147.473L156.307 44H149.506L143.357 24.4148H143.152L137.016 44ZM136.108 33.696H150.324V38.5028H136.108V33.696ZM159.126 44V17.8182H169.941C171.902 17.8182 173.593 18.1719 175.017 18.8793C176.449 19.5781 177.552 20.5838 178.328 21.8963C179.103 23.2003 179.491 24.7472 179.491 26.5369C179.491 28.3523 179.095 29.8949 178.302 31.1648C177.51 32.4261 176.385 33.3892 174.927 34.054C173.47 34.7102 171.744 35.0384 169.75 35.0384H162.91V30.0526H168.574C169.528 30.0526 170.325 29.929 170.964 29.6818C171.612 29.4261 172.102 29.0426 172.434 28.5312C172.767 28.0114 172.933 27.3466 172.933 26.5369C172.933 25.7273 172.767 25.0582 172.434 24.5298C172.102 23.9929 171.612 23.5923 170.964 23.3281C170.316 23.0554 169.52 22.919 168.574 22.919H165.454V44H159.126ZM173.866 32.0341L180.386 44H173.483L167.091 32.0341H173.866Z" fill="#407BFF"/>
<path d="M64.1705 6.85227C64.1326 6.43561 63.964 6.11174 63.6648 5.88068C63.3693 5.64583 62.947 5.52841 62.3977 5.52841C62.0341 5.52841 61.7311 5.57576 61.4886 5.67045C61.2462 5.76515 61.0644 5.89583 60.9432 6.0625C60.822 6.22538 60.7595 6.41288 60.7557 6.625C60.7481 6.79924 60.7822 6.95265 60.858 7.08523C60.9375 7.2178 61.0511 7.33523 61.1989 7.4375C61.3504 7.53598 61.5322 7.62311 61.7443 7.69886C61.9564 7.77462 62.1951 7.84091 62.4602 7.89773L63.4602 8.125C64.036 8.25 64.5436 8.41667 64.983 8.625C65.4261 8.83333 65.7973 9.08144 66.0966 9.36932C66.3996 9.6572 66.6288 9.98864 66.7841 10.3636C66.9394 10.7386 67.0189 11.1591 67.0227 11.625C67.0189 12.3598 66.8333 12.9905 66.4659 13.517C66.0985 14.0436 65.5701 14.447 64.8807 14.7273C64.1951 15.0076 63.3674 15.1477 62.3977 15.1477C61.4242 15.1477 60.5758 15.0019 59.8523 14.7102C59.1288 14.4186 58.5663 13.9754 58.1648 13.3807C57.7633 12.786 57.5568 12.0341 57.5455 11.125H60.2386C60.2614 11.5 60.3617 11.8125 60.5398 12.0625C60.7178 12.3125 60.9621 12.5019 61.2727 12.6307C61.5871 12.7595 61.9508 12.8239 62.3636 12.8239C62.7424 12.8239 63.0644 12.7727 63.3295 12.6705C63.5985 12.5682 63.8049 12.4261 63.9489 12.2443C64.0928 12.0625 64.1667 11.8542 64.1705 11.6193C64.1667 11.3996 64.0985 11.2121 63.9659 11.0568C63.8333 10.8977 63.6288 10.7614 63.3523 10.6477C63.0795 10.5303 62.7311 10.4223 62.3068 10.3239L61.0909 10.0398C60.0833 9.80871 59.2898 9.43561 58.7102 8.92045C58.1307 8.40151 57.8428 7.70076 57.8466 6.81818C57.8428 6.09848 58.036 5.4678 58.4261 4.92614C58.8163 4.38447 59.3561 3.96212 60.0455 3.65909C60.7348 3.35606 61.5208 3.20455 62.4034 3.20455C63.3049 3.20455 64.0871 3.35795 64.75 3.66477C65.4167 3.9678 65.9337 4.39394 66.3011 4.94318C66.6686 5.49242 66.8561 6.12879 66.8636 6.85227H64.1705ZM71.2557 3.36364V15H68.4432V3.36364H71.2557ZM79.3111 6.85227C79.2732 6.43561 79.1046 6.11174 78.8054 5.88068C78.5099 5.64583 78.0876 5.52841 77.5384 5.52841C77.1747 5.52841 76.8717 5.57576 76.6293 5.67045C76.3868 5.76515 76.205 5.89583 76.0838 6.0625C75.9626 6.22538 75.9001 6.41288 75.8963 6.625C75.8887 6.79924 75.9228 6.95265 75.9986 7.08523C76.0781 7.2178 76.1918 7.33523 76.3395 7.4375C76.491 7.53598 76.6728 7.62311 76.8849 7.69886C77.0971 7.77462 77.3357 7.84091 77.6009 7.89773L78.6009 8.125C79.1766 8.25 79.6842 8.41667 80.1236 8.625C80.5668 8.83333 80.938 9.08144 81.2372 9.36932C81.5402 9.6572 81.7694 9.98864 81.9247 10.3636C82.08 10.7386 82.1596 11.1591 82.1634 11.625C82.1596 12.3598 81.974 12.9905 81.6065 13.517C81.2391 14.0436 80.7107 14.447 80.0213 14.7273C79.3357 15.0076 78.508 15.1477 77.5384 15.1477C76.5649 15.1477 75.7164 15.0019 74.9929 14.7102C74.2694 14.4186 73.7069 13.9754 73.3054 13.3807C72.9039 12.786 72.6974 12.0341 72.6861 11.125H75.3793C75.402 11.5 75.5024 11.8125 75.6804 12.0625C75.8584 12.3125 76.1027 12.5019 76.4134 12.6307C76.7277 12.7595 77.0914 12.8239 77.5043 12.8239C77.883 12.8239 78.205 12.7727 78.4702 12.6705C78.7391 12.5682 78.9455 12.4261 79.0895 12.2443C79.2334 12.0625 79.3073 11.8542 79.3111 11.6193C79.3073 11.3996 79.2391 11.2121 79.1065 11.0568C78.974 10.8977 78.7694 10.7614 78.4929 10.6477C78.2202 10.5303 77.8717 10.4223 77.4474 10.3239L76.2315 10.0398C75.224 9.80871 74.4304 9.43561 73.8509 8.92045C73.2713 8.40151 72.9834 7.70076 72.9872 6.81818C72.9834 6.09848 73.1766 5.4678 73.5668 4.92614C73.9569 4.38447 74.4967 3.96212 75.1861 3.65909C75.8755 3.35606 76.6615 3.20455 77.544 3.20455C78.4455 3.20455 79.2277 3.35795 79.8906 3.66477C80.5573 3.9678 81.0743 4.39394 81.4418 4.94318C81.8092 5.49242 81.9967 6.12879 82.0043 6.85227H79.3111ZM83.2031 5.64773V3.36364H93.0384V5.64773H89.5099V15H86.7372V5.64773H83.2031ZM94.4119 15V3.36364H102.526V5.64773H97.2244V8.03409H102.111V10.3239H97.2244V12.7159H102.526V15H94.4119ZM104.287 3.36364H107.77L110.724 10.5682H110.861L113.815 3.36364H117.298V15H114.56V7.85227H114.463L111.668 14.9261H109.918L107.122 7.8125H107.026V15H104.287V3.36364Z" fill="#407BFF"/>
<path d="M25.5 9.04092C8.76945 9.04092 0 24.0634 0 26.4511C0 28.8325 8.76945 43.8612 25.5 43.8612C42.228 43.8612 51 28.8325 51 26.4511C51 24.0634 42.228 9.04092 25.5 9.04092ZM25.5 39.8413C19.2397 39.8413 14.1652 33.8473 14.1652 26.4511C14.1652 19.0549 19.2397 13.0546 25.5 13.0546C31.7602 13.0546 36.8322 19.0549 36.8322 26.4511C36.8322 33.8473 31.7602 39.8413 25.5 39.8413ZM25.5 26.4511C24.4621 25.0614 27.1906 19.7544 25.5 19.7544C22.3686 19.7544 19.8313 22.7545 19.8313 26.4511C19.8313 30.1476 22.3686 33.1478 25.5 33.1478C28.6288 33.1478 31.1686 30.1476 31.1686 26.4511C31.1686 24.7505 26.3823 27.6294 25.5 26.4511Z" fill="#407BFF"/>
</svg>
