<svg width="81" height="81" viewBox="0 0 81 81" fill="none" xmlns="http://www.w3.org/2000/svg">
<path d="M69.1875 69.1875L74.25 74.25M50.625 60.75C50.625 63.4353 51.6917 66.0107 53.5905 67.9095C55.4893 69.8083 58.0647 70.875 60.75 70.875C63.4353 70.875 66.0107 69.8083 67.9095 67.9095C69.8083 66.0107 70.875 63.4353 70.875 60.75C70.875 58.0647 69.8083 55.4893 67.9095 53.5905C66.0107 51.6917 63.4353 50.625 60.75 50.625C58.0647 50.625 55.4893 51.6917 53.5905 53.5905C51.6917 55.4893 50.625 58.0647 50.625 60.75Z" stroke="#5D8FFF" stroke-width="5.0625" stroke-linecap="round" stroke-linejoin="round"/>
<path d="M67.5 40.5V19.4029C67.5002 19.1365 67.4479 18.8726 67.3459 18.6265C67.244 18.3804 67.0945 18.1568 66.906 17.9685L56.2815 7.344C55.9021 6.96413 55.3874 6.75047 54.8505 6.75H15.525C14.9879 6.75 14.4729 6.96335 14.0931 7.34311C13.7133 7.72287 13.5 8.23794 13.5 8.775V72.225C13.5 72.7621 13.7133 73.2771 14.0931 73.6569C14.4729 74.0367 14.9879 74.25 15.525 74.25H37.125" stroke="#5D8FFF" stroke-width="5.0625" stroke-linecap="round" stroke-linejoin="round"/>
<path d="M54 6.75V18.225C54 18.7621 54.2133 19.2771 54.5931 19.6569C54.9729 20.0367 55.4879 20.25 56.025 20.25H67.5" stroke="#5D8FFF" stroke-width="5.0625" stroke-linecap="round" stroke-linejoin="round"/>
</svg>
