<svg width="81" height="81" viewBox="0 0 81 81" fill="none" xmlns="http://www.w3.org/2000/svg">
<path d="M39.6077 49.6568C42.7878 46.9838 45.0688 43.3975 46.1415 39.3841C47.2141 35.3707 47.0264 31.1246 45.604 27.2215C44.1815 23.3184 41.593 19.9472 38.1895 17.5652C34.7861 15.1831 30.7324 13.9055 26.5781 13.9055C22.4239 13.9055 18.3702 15.1831 14.9667 17.5652C11.5633 19.9472 8.97478 23.3184 7.55229 27.2215C6.1298 31.1246 5.94215 35.3707 7.01479 39.3841C8.08743 43.3975 10.3685 46.9838 13.5485 49.6568C8.58277 51.9021 4.27944 55.3893 1.05363 59.7818C0.457826 60.5937 0.208945 61.609 0.36174 62.6044C0.514535 63.5998 1.05649 64.4937 1.86838 65.0895C2.68027 65.6853 3.69558 65.9342 4.69097 65.7814C5.68636 65.6286 6.58029 65.0867 7.17609 64.2748C9.4091 61.225 12.3296 58.7446 15.7006 57.0348C19.0717 55.325 22.7983 54.434 26.5781 54.434C30.358 54.434 34.0846 55.325 37.4556 57.0348C40.8266 58.7446 43.7471 61.225 45.9802 64.2748C46.576 65.0871 47.47 65.6294 48.4657 65.7825C49.4614 65.9356 50.4771 65.6869 51.2895 65.0911C52.1018 64.4953 52.6441 63.6012 52.7972 62.6055C52.9503 61.6098 52.7016 60.5941 52.1058 59.7818C48.878 55.3898 44.5739 51.9029 39.6077 49.6568ZM13.9219 34.1719C13.9219 31.6687 14.6641 29.2218 16.0548 27.1404C17.4455 25.0591 19.4222 23.437 21.7348 22.479C24.0474 21.5211 26.5922 21.2705 29.0472 21.7588C31.5023 22.2472 33.7574 23.4526 35.5274 25.2226C37.2975 26.9926 38.5028 29.2477 38.9912 31.7028C39.4795 34.1578 39.2289 36.7026 38.271 39.0152C37.3131 41.3278 35.6909 43.3045 33.6096 44.6952C31.5282 46.0859 29.0813 46.8281 26.5781 46.8281C23.2215 46.8281 20.0023 45.4947 17.6288 43.1212C15.2553 40.7477 13.9219 37.5285 13.9219 34.1719ZM79.1332 65.0753C78.7312 65.3706 78.275 65.5839 77.7906 65.7029C77.3062 65.8219 76.8031 65.8443 76.3101 65.7688C75.817 65.6932 75.3437 65.5213 74.9171 65.2628C74.4905 65.0043 74.119 64.6642 73.8239 64.2621C71.5854 61.2182 68.6637 58.7421 65.2939 57.033C61.9241 55.324 58.2003 54.4296 54.4219 54.4219C53.4149 54.4219 52.4491 54.0219 51.7371 53.3098C51.025 52.5977 50.625 51.632 50.625 50.625C50.625 49.618 51.025 48.6523 51.7371 47.9402C52.4491 47.2282 53.4149 46.8281 54.4219 46.8281C56.2854 46.8259 58.1254 46.4123 59.8106 45.6167C61.4957 44.821 62.9843 43.6631 64.1702 42.2256C65.356 40.7881 66.2097 39.1064 66.6704 37.3007C67.1311 35.4951 67.1874 33.6099 66.8352 31.78C66.483 29.9501 65.7311 28.2205 64.6331 26.7148C63.5351 25.2091 62.1182 23.9645 60.4835 23.0698C58.8488 22.1751 57.0367 21.6524 55.1766 21.5391C53.3166 21.4257 51.4544 21.7246 49.7232 22.4142C49.2595 22.6041 48.7628 22.7003 48.2617 22.6973C47.7606 22.6943 47.265 22.5921 46.8036 22.3966C46.3422 22.2012 45.924 21.9163 45.5732 21.5585C45.2224 21.2007 44.9459 20.7769 44.7596 20.3117C44.5734 19.8465 44.4811 19.349 44.488 18.848C44.4949 18.3469 44.601 17.8522 44.8 17.3923C44.9991 16.9324 45.2872 16.5165 45.6478 16.1685C46.0084 15.8205 46.4342 15.5473 46.9009 15.3647C51.3695 13.5756 56.3294 13.4367 60.8911 14.9731C65.4528 16.5095 69.3181 19.6207 71.7938 23.7487C74.2696 27.8767 75.1939 32.7516 74.401 37.4994C73.6082 42.2472 71.15 46.5572 67.4673 49.6568C72.433 51.9021 76.7364 55.3893 79.9622 59.7818C80.5521 60.5944 80.796 61.6076 80.6407 62.5997C80.4853 63.5918 79.9433 64.4819 79.1332 65.0753Z" fill="#5D8FFF"/>
</svg>
